HIERARCHY
ROOT Hips
{
  OFFSET -25.4992 47.4658 0.522821
  CHANNELS 6 Xposition Yposition Zposition Zrotation Xrotation Yrotation
  JOINT Bip01_Pelvis
  {
    OFFSET 0 0 0
    CHANNELS 6 Xposition Yposition Zposition Zrotation Xrotation Yrotation
    JOINT Bip01_Spine
    {
      OFFSET 7.92815 1.03427 -0.957866
      CHANNELS 6 Xposition Yposition Zposition Zrotation Xrotation Yrotation
      JOINT Bip01_Spine1
      {
        OFFSET 14.2482 -0.00839019 0.000894789
        CHANNELS 6 Xposition Yposition Zposition Zrotation Xrotation Yrotation
        JOINT Bip01_Neck
        {
          OFFSET 16.1384 -3.98645 0.000135839
          CHANNELS 6 Xposition Yposition Zposition Zrotation Xrotation Yrotation
          JOINT Bip01_Neck1
          {
            OFFSET 9.69266 -0.00491233 0
            CHANNELS 6 Xposition Yposition Zposition Zrotation Xrotation Yrotation
            JOINT Bip01_Head
            {
              OFFSET 6.2355 0 0
              CHANNELS 6 Xposition Yposition Zposition Zrotation Xrotation Yrotation
              JOINT BN_Mouth_01
              {
                OFFSET 4.58056 2.14338 0
                CHANNELS 6 Xposition Yposition Zposition Zrotation Xrotation Yrotation
                End Site
                {
                  OFFSET 0 0 0
                }
              }
            }
          }
          JOINT Bip01_L_Clavicle
          {
            OFFSET -0.933029 -3.98291 -6.88005
            CHANNELS 6 Xposition Yposition Zposition Zrotation Xrotation Yrotation
            JOINT Bip01_L_UpperArm
            {
              OFFSET 15.6802 0 0
              CHANNELS 6 Xposition Yposition Zposition Zrotation Xrotation Yrotation
              JOINT Bip01_L_Forearm
              {
                OFFSET 15.3149 0 0
                CHANNELS 6 Xposition Yposition Zposition Zrotation Xrotation Yrotation
                JOINT Bip01_L_Hand
                {
                  OFFSET 16.178 0 0
                  CHANNELS 6 Xposition Yposition Zposition Zrotation Xrotation Yrotation
                  JOINT Bip01_L_Finger0
                  {
                    OFFSET 12.9992 0 0
                    CHANNELS 6 Xposition Yposition Zposition Zrotation Xrotation Yrotation
                    End Site
                    {
                      OFFSET 0 0 0
                    }
                  }
                }
              }
              JOINT BN__UpperArm_L_01
              {
                OFFSET 4.92586 2.56729 1.95639
                CHANNELS 6 Xposition Yposition Zposition Zrotation Xrotation Yrotation
                End Site
                {
                  OFFSET 0 0 0
                }
              }
            }
          }
          JOINT Bip01_R_Clavicle
          {
            OFFSET -1.90751 -3.34722 7.0168
            CHANNELS 6 Xposition Yposition Zposition Zrotation Xrotation Yrotation
            JOINT Bip01_R_UpperArm
            {
              OFFSET 15.6801 0 0
              CHANNELS 6 Xposition Yposition Zposition Zrotation Xrotation Yrotation
              JOINT Bip01_R_Forearm
              {
                OFFSET 15.3149 0 0
                CHANNELS 6 Xposition Yposition Zposition Zrotation Xrotation Yrotation
                JOINT Bip01_R_Hand
                {
                  OFFSET 16.1779 0 0
                  CHANNELS 6 Xposition Yposition Zposition Zrotation Xrotation Yrotation
                  JOINT Bip01_R_Finger0
                  {
                    OFFSET 12.9991 0 0
                    CHANNELS 6 Xposition Yposition Zposition Zrotation Xrotation Yrotation
                    End Site
                    {
                      OFFSET 0 0 0
                    }
                  }
                }
              }
              JOINT BN__UpperArm_R_01
              {
                OFFSET 4.92584 2.56728 -1.95638
                CHANNELS 6 Xposition Yposition Zposition Zrotation Xrotation Yrotation
                End Site
                {
                  OFFSET 0 0 0
                }
              }
            }
          }
        }
      }
      JOINT Bip01_L_Thigh
      {
        OFFSET -8.91231 -1.85462 5.82833
        CHANNELS 6 Xposition Yposition Zposition Zrotation Xrotation Yrotation
        JOINT Bip01_L_Calf
        {
          OFFSET 15.7566 0 0
          CHANNELS 6 Xposition Yposition Zposition Zrotation Xrotation Yrotation
          JOINT Bip01_L_HorseLink
          {
            OFFSET 16.2363 0 0
            CHANNELS 6 Xposition Yposition Zposition Zrotation Xrotation Yrotation
            JOINT Bip01_L_Foot
            {
              OFFSET 13.9816 0 0
              CHANNELS 6 Xposition Yposition Zposition Zrotation Xrotation Yrotation
              JOINT Bip01_L_Toe0
              {
                OFFSET 7.68594 5.03696 0
                CHANNELS 6 Xposition Yposition Zposition Zrotation Xrotation Yrotation
                End Site
                {
                  OFFSET 0 0 0
                }
              }
            }
          }
        }
      }
      JOINT Bip01_R_Thigh
      {
        OFFSET -6.80264 -1.57702 -6.62463
        CHANNELS 6 Xposition Yposition Zposition Zrotation Xrotation Yrotation
        JOINT Bip01_R_Calf
        {
          OFFSET 15.7566 0 0
          CHANNELS 6 Xposition Yposition Zposition Zrotation Xrotation Yrotation
          JOINT Bip01_R_HorseLink
          {
            OFFSET 16.2363 0 0
            CHANNELS 6 Xposition Yposition Zposition Zrotation Xrotation Yrotation
            JOINT Bip01_R_Foot
            {
              OFFSET 13.9816 0 0
              CHANNELS 6 Xposition Yposition Zposition Zrotation Xrotation Yrotation
              JOINT Bip01_R_Toe0
              {
                OFFSET 7.68597 5.03696 0
                CHANNELS 6 Xposition Yposition Zposition Zrotation Xrotation Yrotation
                End Site
                {
                  OFFSET 0 0 0
                }
              }
            }
          }
        }
      }
    }
    JOINT BN_Tail_01
    {
      OFFSET -7.9584 -2.82211 0
      CHANNELS 6 Xposition Yposition Zposition Zrotation Xrotation Yrotation
      JOINT BN_Tail_02
      {
        OFFSET 10.9082 0 0.00113176
        CHANNELS 6 Xposition Yposition Zposition Zrotation Xrotation Yrotation
        End Site
        {
          OFFSET 0 0 0
        }
      }
    }
  }
}
MOTION
Frames:	5
Frame Time:	0.0333333
-24.5934 46.8753 -6.62843e-006 -90.0001 -84.6855 -8.23702e-005 3.8147e-006 -4.44089e-016 -3.55271e-015 -89.9441 -3.50835e-015 -90 7.98265 1.06454 -0.000311136 -0.0897096 -0.98235 -7.99858 14.2478 -0.00817871 -0.00195521 -7.57933 13.3511 0.602555 16.1387 -3.98735 0.00104427 -53.543 -7.84028 -6.20473 9.69266 -0.00491238 -2.38418e-007 -7.86812 1.95995 4.86565 6.23551 9.53675e-007 -1.90735e-006 29.2476 -6.51578 -6.48201 4.58057 2.14338 4.44089e-016 -121.275 -0.032196 -179.982 -2.81615 -2.38322 -7.10501 -127.117 -0.441102 -87.4357 15.6802 3.8147e-006 1.90735e-006 -18.436 -49.5728 75.5667 15.3149 -1.90736e-006 4.76837e-007 -67.3094 1.54753e-005 -1.04208e-005 16.1779 -1.90737e-006 9.53673e-007 162.367 -76.4537 89.7557 12.999 5.96062e-007 -1.43051e-006 9.66466 -8.06095 -39.311 4.92587 2.56729 1.9564 14.1164 -8.48206 -6.70252 -1.32421 -4.28505 6.62869 -126.707 -9.42064 90.3487 15.6802 0 1.77635e-015 -11.5631 56.864 -68.2659 15.3149 -9.53679e-007 4.76837e-007 -33.6486 1.31008e-005 1.02186e-006 16.178 4.76841e-007 -9.53673e-007 178.657 78.921 178.913 12.9993 -9.53689e-007 -9.53666e-007 0.000587312 0.0421023 -11.1174 4.92585 2.56728 -1.95638 -165.885 -8.5225 173.302 -7.0269 -1.18577 7.34659 -124.608 18.1824 -175.971 15.7566 1.90735e-006 2.38418e-006 -37.472 6.22655e-006 1.34103e-005 16.2363 1.90735e-006 -4.76836e-007 48.9798 1.53704e-006 -4.30039e-007 13.9816 1.43051e-006 1.90734e-006 -41.9138 6.41372 7.46636 7.68593 5.03696 9.53671e-007 89.9961 2.59524e-005 -1.02746e-005 -8.78497 -0.968532 -5.16207 -93.4643 -19.5765 170.118 15.7566 1.90735e-006 -1.90735e-006 -52.058 -1.05665e-005 4.37139e-006 16.2363 -7.62939e-006 1.90735e-006 29.8671 9.96999e-006 5.07161e-006 13.9816 -7.62939e-006 5.72204e-006 22.1237 -2.88964 9.86066 7.68596 5.03695 1.90734e-006 89.9962 1.09361e-005 -3.99032e-006 -7.95841 -2.82211 4.76837e-007 -63.902 2.50139 177.232 10.9082 -7.10542e-015 0.00113201 29.9394 -0.000115451 26.3612 
-24.6178 46.8671 -0.0743447 -93.9005 -84.7721 -4.23994 4.3446e-006 1.55281e-007 -1.15392e-007 -90.3363 -3.50829e-015 -90 7.98251 1.06619 0.00357376 0.54393 -0.447801 -7.91841 14.2478 -0.00817945 -0.00183412 -7.84133 13.1705 0.934862 16.1386 -3.98729 0.00100003 -53.9079 -7.62143 -6.15532 9.69263 -0.00491153 -9.59388e-007 -7.65604 1.95432 4.97682 6.23547 1.20255e-006 -1.7833e-006 29.1543 -6.39063 -6.76125 4.58054 2.14336 -9.3939e-007 -121.213 -0.0319977 -179.983 -2.78799 -2.42423 -7.10227 -126.733 -0.227051 -87.7088 15.6801 1.88882e-006 -3.54978e-007 -16.9173 -50.4188 76.7408 15.3148 7.33893e-007 -8.85406e-007 -68.7905 -4.82331e-006 9.3535e-006 16.1778 -1.01673e-006 -2.46567e-006 162.143 -76.3419 91.148 12.9989 -1.85724e-006 -2.41208e-006 10.3391 -8.08637 -39.3674 4.92584 2.56728 1.95638 14.1164 -8.48205 -6.70252 -1.30572 -4.27367 6.6402 -126.353 -9.0085 90.0171 15.6801 1.25347e-006 -8.26294e-007 -13.2166 55.6849 -67.0645 15.3148 6.52031e-006 4.13174e-006 -33.1922 2.66942e-005 -1.32165e-005 16.1779 -2.45907e-007 2.4421e-006 179.238 78.3301 178.338 12.9992 1.20956e-006 -3.05411e-007 -0.00026036 0.0422236 -11.9347 4.92581 2.56727 -1.95637 -165.885 -8.5225 173.302 -7.04733 -1.0395 7.34635 -126.838 17.604 -175.062 15.7566 -6.33938e-006 3.4364e-006 -43.2176 5.26517e-005 -1.67785e-005 16.2362 7.46161e-007 -2.32963e-006 51.4322 1.18908e-005 -4.65561e-006 13.9815 -4.75774e-006 2.74312e-006 -41.0381 6.21377 7.32042 7.6859 5.03694 1.16715e-006 90.4233 -0.127279 0.0239344 -8.78806 -0.940699 -5.16619 -94.0665 -19.4839 169.996 15.7566 -2.67231e-006 -1.87761e-006 -52.9705 -1.01195e-006 1.69269e-005 16.2363 -1.40757e-006 -6.38894e-007 28.8368 2.6855e-005 2.71648e-005 13.9816 -7.7903e-006 2.11611e-006 18.4773 -4.0878 8.96849 7.68593 5.03693 2.45422e-006 89.9963 0.00561187 -1.95793e-005 -7.9584 -2.82211 6.37306e-007 -63.9219 2.5129 176.621 10.9082 3.04706e-008 0.00113159 29.0164 0.467428 24.678 
-24.649 46.9011 -0.154987 -98.3563 -84.8998 -9.05139 3.82966e-006 -7.34855e-008 3.5191e-008 -90.6829 0.0201569 -90.0825 7.98252 1.06795 0.000660121 1.36543 0.132384 -7.70518 14.2478 -0.00818686 -0.00171055 -8.20556 12.8054 1.30691 16.1387 -3.98724 0.000957513 -54.3623 -7.27511 -5.98784 9.69267 -0.00491137 -5.58944e-008 -7.38159 1.93806 4.9738 6.2355 7.9223e-007 -1.60619e-006 29.048 -6.11942 -6.92386 4.58057 2.14338 -2.52664e-007 -121.15 -0.0317993 -179.983 -2.73888 -2.48443 -7.10062 -126.26 0.289137 -87.9924 15.6801 -4.14988e-008 1.6599e-006 -15.1801 -51.352 77.855 15.3149 9.78887e-007 -1.83675e-006 -69.9388 -1.33918e-005 -1.6084e-005 16.1779 3.84338e-007 -4.7404e-007 161.035 -76.2445 93.2668 12.999 -1.53915e-006 4.93847e-007 11.0137 -8.11242 -39.4236 4.92586 2.56729 1.95639 14.1163 -8.48205 -6.70252 -1.29751 -4.24993 6.65677 -125.885 -8.65551 89.7234 15.6801 9.80591e-007 9.02285e-007 -14.1837 54.3516 -66.4529 15.3149 -7.19187e-007 1.1078e-006 -33.3966 3.7125e-005 -6.70276e-006 16.178 3.94539e-006 1.14346e-006 179.906 77.967 178.42 12.9993 -1.52534e-006 -3.66874e-006 -0.00112513 0.0423588 -12.7519 4.92585 2.56728 -1.95638 -165.885 -8.52248 173.302 -7.08616 -0.862536 7.33436 -128.32 16.8151 -174.498 15.7566 1.25314e-006 3.10578e-006 -47.5696 6.76053e-006 1.67843e-005 16.2363 -1.09816e-007 -1.38834e-007 53.3811 7.24731e-006 2.43399e-006 13.9816 2.53794e-006 6.90542e-008 -39.8627 5.76987 6.92161 7.68593 5.03696 -9.68322e-007 90.8504 -0.254343 0.0488765 -8.7804 -0.892039 -5.18494 -94.8319 -19.2935 169.953 15.7566 -2.13231e-006 -3.95584e-007 -54.0868 -3.9521e-006 1.32388e-005 16.2363 2.99301e-007 3.13069e-006 28.5083 -0.000880827 -0.00342821 13.9816 -3.48589e-006 6.75047e-006 12.4188 -5.50511 7.38286 7.68597 5.03695 1.75783e-006 89.9962 0.011213 -8.63998e-006 -7.95841 -2.82211 8.62742e-007 -63.9475 2.52645 175.908 10.9082 1.83328e-006 0.00113182 28.1074 0.961831 23.0023 
-24.6862 46.9722 -0.240652 -103.39 -85.0534 -14.4459 5.44462e-006 2.92475e-008 -1.22169e-006 -91.0857 0.0352425 -90.1939 7.9824 1.07003 -0.010022 2.34091 0.756846 -7.38027 14.2477 -0.00817902 -0.00158681 -8.6583 12.2768 1.7054 16.1386 -3.98718 0.000917055 -54.8949 -6.81648 -5.70601 9.69265 -0.00491418 1.50428e-006 -7.06975 1.90388 4.88834 6.2355 -1.4678e-006 -9.41112e-008 28.9424 -5.84798 -7.08597 4.58056 2.14337 2.99646e-007 -121.088 -0.0316772 -179.984 -2.67085 -2.56098 -7.09681 -125.693 1.06578 -88.287 15.6801 2.78618e-006 9.5352e-007 -13.2414 -52.374 78.9316 15.3149 -2.18291e-006 -4.22264e-006 -70.7731 -3.23067e-005 1.00503e-005 16.1779 -7.36278e-007 -1.97189e-006 159.157 -76.1898 95.9399 12.999 1.18612e-006 -2.08286e-006 11.6882 -8.13915 -39.4795 4.92586 2.56729 1.95639 14.1163 -8.48203 -6.7025 -1.29545 -4.21584 6.68133 -125.322 -8.36717 89.4488 15.6801 -4.90203e-006 1.19536e-006 -14.6633 52.9429 -66.2368 15.3149 2.06232e-007 -2.53706e-006 -34.0178 -1.17817e-006 2.70353e-006 16.178 1.68086e-006 -3.37861e-006 -179.362 77.7848 178.964 12.9992 -3.52676e-006 -5.6854e-007 -0.00199189 0.0425006 -13.5691 4.92584 2.56728 -1.95638 -165.885 -8.52259 173.302 -7.13914 -0.659036 7.31332 -129.268 15.8855 -174.191 15.7566 -3.56699e-006 5.44019e-007 -50.9204 5.33669e-006 1.70211e-005 16.2363 -5.19572e-008 -9.98236e-007 54.9995 -8.26151e-006 2.40259e-005 13.9815 -5.98821e-006 -7.42098e-007 -38.4401 5.12877 6.3386 7.68593 5.03695 -1.06102e-006 90.6167 -0.17552 0.00507267 -8.76202 -0.826041 -5.21434 -95.7686 -19.0096 169.957 15.7566 -2.15635e-006 -2.52272e-006 -55.3784 -1.97999e-005 -9.47219e-006 16.2363 4.86688e-006 3.71363e-006 28.8007 -0.000865664 -0.00341041 13.9816 1.68621e-006 1.64674e-006 4.5233 -6.82689 5.20103 7.68596 5.03695 1.22246e-006 89.9962 0.0168142 1.91117e-005 -7.9584 -2.82211 4.14334e-007 -63.9768 2.54105 175.116 10.9082 4.28256e-006 0.00113286 26.7339 1.5163 20.6221 
-24.7287 47.0751 -0.330062 -109.165 -85.2129 -20.5893 2.02409e-006 3.98575e-008 1.29188e-007 -91.5077 0.0534574 -90.3421 7.98227 1.07212 -0.0207064 3.44689 1.41677 -6.96088 14.2475 -0.00818861 -0.00146615 -9.17937 11.5984 2.12267 16.1383 -3.98704 0.00086821 -55.4966 -6.26524 -5.32792 9.69247 -0.00490804 1.50173e-008 -6.71352 1.8476 4.72389 6.23528 2.40904e-006 -1.12511e-006 28.8336 -5.40824 -7.09648 4.58033 2.14327 -2.34899e-007 -121.026 -0.0314941 -179.985 -2.58574 -2.65184 -7.09734 -125.056 2.06094 -88.5961 15.6796 9.0145e-007 -2.02762e-005 -11.0835 -53.4785 80.0233 15.3143 1.10305e-005 2.16357e-005 -71.3188 4.95691e-005 -4.87166e-006 16.1773 -1.47409e-005 3.59515e-006 156.652 -76.2006 99.0372 12.9984 -2.78648e-005 8.4745e-007 12.3625 -8.16656 -39.5351 4.92569 2.5672 1.95632 14.1164 -8.48199 -6.70256 -1.29955 -4.17342 6.70428 -124.676 -8.1273 89.1896 15.6795 -1.15853e-006 -7.7318e-006 -14.8392 51.5337 -66.2492 15.3142 -4.4687e-006 3.51438e-006 -34.826 4.10073e-005 -4.10052e-006 16.177 -2.86319e-006 -2.75604e-007 -178.623 77.7456 179.802 12.9982 -1.61599e-006 2.42208e-006 -0.00432077 0.0419763 -14.5849 4.92562 2.56717 -1.95629 -165.885 -8.5227 173.302 -7.20351 -0.432964 7.27615 -129.818 14.8831 -174.087 15.7562 5.44738e-006 5.77438e-006 -53.4986 5.06774e-005 -1.16458e-005 16.2358 -1.03226e-006 -6.62859e-006 56.364 2.36928e-005 3.83902e-006 13.981 7.07408e-006 -2.79506e-007 -36.8248 4.32813 5.63583 7.68558 5.03673 2.0657e-007 90.3832 -0.0965385 -0.038437 -8.73423 -0.745972 -5.26017 -96.9021 -18.684 170.007 15.7563 3.17793e-006 3.15535e-006 -56.8208 2.86162e-005 -3.62842e-005 16.2358 -9.21408e-006 1.15698e-005 29.621 -1.95637e-008 -2.047e-005 13.981 -2.24259e-006 9.7163e-006 -4.61712 -7.78121 2.60484 7.68548 5.03664 5.93473e-006 89.9963 0.0224154 -2.93809e-005 -7.95839 -2.82211 1.03964e-006 -64.009 2.55547 174.27 10.9081 3.62229e-006 0.00113178 25.3841 2.12718 18.2552 
